<svg width="24" height="24" viewBox="0 0 256 256" fill="currentColor" xmlns="http://www.w3.org/2000/svg">
<path d="M221.657 133.659L149.657 205.659C148.156 207.16 146.121 208.003 143.999 208.003C141.877 208.003 139.842 207.16 138.341 205.659C136.84 204.158 135.997 202.123 135.997 200.001C135.997 197.879 136.84 195.844 138.341 194.343L196.688 136H40C37.8783 136 35.8434 135.157 34.3431 133.657C32.8429 132.157 32 130.122 32 128C32 125.878 32.8429 123.843 34.3431 122.343C35.8434 120.843 37.8783 120 40 120H196.688L138.341 61.6573C136.84 60.1563 135.997 58.1213 135.997 55.9993C135.997 53.8773 136.84 51.8422 138.341 50.3412C139.842 48.8403 141.877 47.9971 143.999 47.9971C146.121 47.9971 148.156 48.8403 149.657 50.3412L221.657 122.341C222.401 123.084 222.99 123.966 223.393 124.937C223.795 125.908 224.002 126.949 224.002 128C224.002 129.051 223.795 130.092 223.393 131.063C222.99 132.034 222.401 132.916 221.657 133.659Z"/>
</svg>
