<svg width="62" height="61" viewBox="0 0 62 61" fill="none" xmlns="http://www.w3.org/2000/svg">
<rect x="0.69" y="0.12" width="61.225" height="60.7437" fill="white"/>
<rect x="2.62" y="2.02" width="57.4187" height="38.6746" fill="#0057B8"/>
<g transform="translate(2.62 7.08)">
<g id="Group">
<path id="Vector" d="M35.9305 0L33.393 4.12457L23.2968 20.5961L22.244 18.7748L24.3496 15.3466L20.0304 8.24914H9.25934L20.8133 26.8901C21.5691 28.0953 23.0809 29.0327 25.3215 29.0327C27.562 29.0327 29.1548 28.0953 29.9106 26.8901L46.7016 0H35.9305Z" fill="white"/>
<path id="Vector_2" d="M57.4187 35.541H3.98172e-08V51.8518H57.4187V35.541Z" fill="#002D72"/>
<path id="Vector_3" d="M8.74643 39.1566H10.7441L7.85559 47.2451H6.58682L3.67134 39.1566H5.66898L7.2077 44.1383L8.74643 39.1566Z" fill="white"/>
<path id="Vector_4" d="M13.4436 39.1566H11.5809V47.138H13.4436V39.1566Z" fill="white"/>
<path id="Vector_5" d="M19.3555 47.138L16.548 42.8527L16.575 47.138H14.7663V39.1566H16.2241L19.0316 43.4687L19.0046 39.1566H20.7863V47.138H19.3555Z" fill="white"/>
<path id="Vector_6" d="M25.2135 38.9692C26.1313 38.9692 27.0221 39.0763 27.589 39.3173V41.1921C26.4552 40.7368 25.7804 40.7101 25.2135 40.7101C24.1067 40.7101 23.7287 41.6742 23.7287 43.1473C23.7287 44.6204 24.1067 45.5845 25.2135 45.5845C25.8074 45.5845 26.4552 45.5578 27.589 45.1025V46.9773C26.9952 47.2451 26.1313 47.3254 25.2135 47.3254C22.6759 47.3254 21.8661 45.6113 21.8661 43.1473C21.8661 40.6833 22.7029 38.9692 25.2135 38.9692Z" fill="white"/>
<path id="Vector_7" d="M31.7463 47.3522C28.9118 47.3522 28.5339 45.2632 28.5339 43.1741C28.5339 41.085 28.9118 38.9959 31.7463 38.9959C34.5808 38.9959 34.9587 41.085 34.9587 43.1741C34.9587 45.2632 34.5808 47.3522 31.7463 47.3522ZM31.7463 40.7101C30.5855 40.7101 30.4235 41.5403 30.4235 43.1473C30.4235 44.7543 30.5855 45.5845 31.7463 45.5845C32.9071 45.5845 33.0691 44.7543 33.0691 43.1473C33.0691 41.5403 32.8801 40.7101 31.7463 40.7101Z" fill="white"/>
<path id="Vector_8" d="M39.089 40.8975V47.138H37.2263V40.8975H35.3097V39.1566H41.0326V40.8975H39.089Z" fill="white"/>
<path id="Vector_9" d="M45.4328 40.8975V47.138H43.5702V40.8975H41.6535V39.1566H47.3765V40.8975H45.4328Z" fill="white"/>
<path id="Vector_10" d="M53.1804 43.8972H50.13V45.3971H53.5044V47.138H48.2943V39.1566H53.5044V40.8975H50.13V42.1563H53.1804V43.8972Z" fill="white"/>
<path id="Vector_11" d="M27.5351 48.2361H24.2147V49.8966H27.5351V48.2361Z" fill="white"/>
</g>
</g>
</svg>
